<svg role="img" viewBox="0 0 36 49" xmlns="http://www.w3.org/2000/svg"><title>Lume</title><path d="M14.2 3.78c-1.49 6.04 6.1 4.94 6.1 13.77 2.5-2.86.49-6.7 4.47-10.33 0 3.03 1.04 4.9 2.23 6.6l.25.37.11.15.22.31.33.46.22.31c1.7 2.46 3.08 5.24 1.5 11.31 1.4-.86 2.42-2.29 3.04-4.28 1.25 1.99.79 5.52-1.4 10.6a6.47 6.47 0 0 0 3.74-3.5c.15 6.57-2.43 11.95-6.74 15.18a270.62 270.62 0 0 0-.51-8.5c-.35-4.58-1.15-7.03-2.77-9.35-1.62-2.33-3.42-3.08-5.96-3.43-2.53-.35-5.04.2-7.81 1.64-2.77 1.45-4.58 4.38-3.78 6.06.8 1.67 3.36 2.76 6.36 2.65 3-.1 5.1-1.16 5.87-1.45.78-.3 1.1.64.51.95l-2.1 1.1c.39 2.2.59 4.45.59 6.75 0 2.07-.04 4.35-.11 6.85-.31.01-.63.02-.94.01C7.3 47.87-.53 38.9 1.22 27.7a4.64 4.64 0 0 0 2.6 3.1c-1.53-6.93-.28-9.66 1.33-12.2l.22-.33.21-.32c.83-1.27 1.7-2.58 2.3-4.43-.31 3.12 0 4.86 1.5 6.67.9-2.64 4.17-4.85 2.9-8.1-1.27-3.24-1.15-4.5 1.92-8.3Zm-.04 22.87a.75.75 0 1 1 0 1.5.75.75 0 0 1 0-1.5Zm-3.9-.65a.75.75 0 1 1 0 1.5.75.75 0 0 1 0-1.5Zm.4-19.36c-.82.83-.64 3.25.3 5.37.93 2.13-.3 3.72-1.63 5.7.23-2.63 0-3.25-1.13-5.26-1.13-2.02.41-4.68 2.46-5.81Zm8-2.84c1.9 1.65 2.58 1.82 2.79 3.52.2 1.7-.72 2.5-.35 4.73-3.89-3.2-.84-4.34-2.44-8.25ZM14.38.79c1.37 1.62 2.18 1.2 3.08 3.27.9 2.07-.23 2.55.54 5.04-4.5-3.87-1.71-4.18-3.62-8.31Z"/></svg>